<?xml version="1.0" encoding="utf-8"?>
<!-- Generator: Adobe Illustrator 25.4.1, SVG Export Plug-In . SVG Version: 6.00 Build 0)  -->
<svg version="1.1" id="Ebene_1" xmlns="http://www.w3.org/2000/svg" xmlns:xlink="http://www.w3.org/1999/xlink" x="0px" y="0px"
	 viewBox="0 0 275.2 102.1" style="enable-background:new 0 0 275.2 102.1;" xml:space="preserve">
<style type="text/css">
	.st0{fill:#004894;}
	.st1{fill:#FFFFFF;}
</style>
<g>
	<path class="st0" d="M0,98.7c0,0,0,3.4,3.4,3.4h268.3c0,0,3.4,0,3.4-3.4V3.4c0,0,0-3.4-3.4-3.4H3.4C3.4,0,0,0,0,3.4V98.7L0,98.7z"
		/>
	<path class="st1" d="M36.2,68.1h-1.9l-1.4,6.7c-0.3,1.3-0.7,3.5-0.8,4.3h-0.1c-0.1-0.6-0.4-2.4-0.7-3.9l-1.5-7.1h-2.1l-1.5,7
		c-0.3,1.5-0.6,3.1-0.7,4h-0.1c-0.1-0.8-0.3-2.3-0.7-4.2L23,68.1h-2l3.1,13.3h2.3l1.4-6.8c0.3-1.4,0.6-3.1,0.7-3.8h0.1
		c0.1,0.8,0.3,2.2,0.7,3.8l1.5,6.7h2.3L36.2,68.1L36.2,68.1z M48.2,81.4l-4.3-13.3h-2.3l-4.4,13.3h1.9l1.2-3.8h4.6l1.2,3.8H48.2
		L48.2,81.4z M44.5,76.1h-3.7c0.2-0.6,1.6-5.4,1.8-6.2h0.1C42.9,70.7,44.3,75.5,44.5,76.1L44.5,76.1z M41.8,66.2
		c0-0.7-0.5-1.2-1.1-1.2s-1.1,0.5-1.1,1.2c0,0.7,0.5,1.2,1.1,1.2C41.3,67.4,41.8,66.9,41.8,66.2L41.8,66.2z M45.8,66.2
		c0-0.7-0.5-1.2-1.1-1.2s-1.1,0.5-1.1,1.2c0,0.7,0.5,1.2,1.1,1.2C45.3,67.4,45.8,66.9,45.8,66.2L45.8,66.2z M59.5,81.4V68.1h-1.8
		l0,6.5c0,1.5,0.2,3.6,0.2,4l-0.1,0c-0.1-0.4-0.8-2.1-1.3-3.2l-3.7-7.3h-2.2v13.3h1.9l-0.1-7c0-1.2-0.1-2.6-0.2-3.7l0.1,0
		c0.2,0.8,0.9,2.3,1.6,3.6l3.5,7.1H59.5L59.5,81.4z M73,74.7c0-1.8-0.4-3.4-1.2-4.5c-1.2-1.7-2.7-2.2-5-2.2h-3.1v13.3H67
		c2.3,0,3.5-0.6,4.5-1.8C72.4,78.5,73,76.9,73,74.7L73,74.7z M70.9,75c0,1.3-0.2,2.5-0.7,3.4c-0.6,1.1-1.6,1.5-3.1,1.5h-1.5V69.6
		h1.5c1.3,0,2.1,0.3,2.8,1.2C70.7,71.8,70.9,73.1,70.9,75L70.9,75z M84,81.4v-1.6h-5.6v-4.6h4.3v-1.6h-4.3v-4h5.1l0.2-1.5h-7.2v13.3
		H84L84,81.4z M99.4,79.8h-4.9c-0.5,0-0.9,0-1.3,0c0.2-0.4,0.5-0.8,0.8-1.3l5.3-9v-1.5h-7.6l-0.4,1.5h4.6c0.7,0,1.1,0,1.5-0.1
		c-0.3,0.3-0.7,0.9-0.9,1.4L91,80v1.4H99L99.4,79.8L99.4,79.8z M111.4,77.2v-9.1h-1.9v8.8c0,1.1-0.2,1.8-0.5,2.2
		c-0.4,0.6-1.2,0.9-2.2,0.9c-1.1,0-1.7-0.3-2.1-0.8c-0.4-0.4-0.5-1.6-0.5-2.6v-8.6h-1.9v9.3c0,1.4,0.1,1.8,0.4,2.4
		c0.7,1.2,2,1.9,4,1.9c2,0,3.1-0.7,3.8-1.6C111.3,79.3,111.4,78.9,111.4,77.2L111.4,77.2z M128.2,81.4L127,68.1h-2.6l-2.3,8.3
		c-0.2,0.9-0.4,1.8-0.5,2.1h0c0-0.3-0.2-1.1-0.5-2.2l-2.2-8.2h-2.6l-1.2,13.3h1.8l0.7-8.8c0.1-0.7,0.1-2,0.1-2.4h0
		c0.1,0.3,0.3,1.4,0.6,2.4l2.4,8.8h1.6l2.6-9.2c0.2-0.7,0.4-1.6,0.5-2h0c0,0.4,0,1.4,0.1,2.2l0.7,9H128.2L128.2,81.4z M150.5,68.1
		h-1.9l-1.4,6.7c-0.3,1.3-0.7,3.5-0.8,4.3h-0.1c-0.1-0.6-0.4-2.4-0.7-3.9l-1.5-7.1h-2.1l-1.5,7c-0.3,1.5-0.6,3.1-0.7,4h-0.1
		c-0.1-0.8-0.3-2.3-0.7-4.2l-1.5-6.8h-2l3.1,13.3h2.3l1.4-6.8c0.3-1.4,0.6-3.1,0.7-3.8h0.1c0.1,0.8,0.3,2.2,0.7,3.8l1.5,6.7h2.3
		L150.5,68.1L150.5,68.1z M163.4,74.8c0-3.7-1.5-7-5.5-7c-3.3,0-5.4,2.4-5.4,6.8c0,4,1.8,6.9,5.5,6.9
		C161.4,81.6,163.4,78.9,163.4,74.8L163.4,74.8z M161.2,75c0,3.7-1.2,5.2-3.2,5.2c-2.6,0-3.4-2.3-3.4-5.7c0-3.4,0.9-5.2,3.3-5.2
		C160.4,69.3,161.2,71.4,161.2,75L161.2,75z M175.8,81.4V68.1h-1.9v5.5h-5.1v-5.5H167v13.3h1.8v-6.3h5.1v6.3H175.8L175.8,81.4z
		 M186.9,79.8h-5.1V68.1H180v13.3h6.6L186.9,79.8L186.9,79.8z M196.6,68.1h-6.9v13.3h1.9v-6.2h3.9v-1.5h-3.9v-4h4.8L196.6,68.1
		L196.6,68.1z M208,77.2v-9.1h-1.9v8.8c0,1.1-0.2,1.8-0.5,2.2c-0.4,0.6-1.2,0.9-2.2,0.9c-1.1,0-1.7-0.3-2.1-0.8
		c-0.4-0.4-0.5-1.6-0.5-2.6v-8.6H199v9.3c0,1.4,0.1,1.8,0.4,2.4c0.7,1.2,2,1.9,4,1.9c2,0,3.1-0.7,3.8-1.6
		C207.9,79.3,208,78.9,208,77.2L208,77.2z M202.6,66.2c0-0.7-0.5-1.2-1.1-1.2s-1.1,0.5-1.1,1.2c0,0.7,0.5,1.2,1.1,1.2
		C202.1,67.4,202.6,66.9,202.6,66.2L202.6,66.2z M206.6,66.2c0-0.7-0.5-1.2-1.1-1.2c-0.6,0-1.1,0.5-1.1,1.2c0,0.7,0.5,1.2,1.1,1.2
		C206.1,67.4,206.6,66.9,206.6,66.2L206.6,66.2z M220.8,81.4V68.1h-1.9v5.5h-5.1v-5.5H212v13.3h1.8v-6.3h5.1v6.3H220.8L220.8,81.4z
		 M231.9,79.8h-5.1V68.1H225v13.3h6.6L231.9,79.8L231.9,79.8z M242.2,81.4v-1.6h-5.6v-4.6h4.3v-1.6h-4.3v-4h5.1l0.3-1.5h-7.2v13.3
		H242.2L242.2,81.4z M254.2,81.4V68.1h-1.8l0,6.5c0,1.5,0.2,3.6,0.2,4l-0.1,0c-0.1-0.4-0.8-2.1-1.3-3.2l-3.7-7.3h-2.2v13.3h1.9
		l-0.1-7c0-1.2-0.1-2.6-0.2-3.7l0.1,0c0.3,0.8,0.9,2.3,1.6,3.6l3.5,7.1H254.2L254.2,81.4z"/>
	<path class="st1" d="M251.9,20.5l-23,0h-10.5c-0.8,0.1-1.4,1-1.4,2.4c0,1.5,0.7,2.5,1.3,2.6l7.1,0l2,0c1.5,0,1.9,0.3,1.9,2.1v24
		l0,5.9l12,0l0-5.4c0-0.6,0-18.5,0-24.6c0-1.3,0.3-1.8,1.1-1.9l9.2,0c0.7-0.1,1.4-1.1,1.4-2.6C253.2,21.5,252.6,20.6,251.9,20.5
		L251.9,20.5L251.9,20.5z"/>
	<path class="st1" d="M133.5,23c0-1.5-0.6-2.3-1.3-2.4l-25.1,0c-2.5,0-3.3,1.1-3.3,3.2l0,27.4l0.1,6.4h11.8l0-4.9V40.9h13.4l0-4.9
		h-13.4v-8c0-2,0.7-2.5,2.2-2.5h2.3h11.9C132.8,25.4,133.5,24.4,133.5,23L133.5,23L133.5,23z"/>
	<path class="st1" d="M137.4,20.6l0,21.3c0,9.7,2.1,16.8,17.1,16.8c11,0,17.7-3.7,17.7-16.1l0-22h-8.3l0,22.5
		c0.1,6.5-2.2,9.1-7.1,9.1c-3.4,0-7.3-0.7-7.4-9.2l0.1-22.4L137.4,20.6L137.4,20.6z"/>
	<path class="st1" d="M51.3,22.9c0,1.5-0.7,2.6-1.4,2.6l-15.3,0c-1.2,0-1.8,0.4-1.8,1.9v7.9l9.5,0c0.8,0,3.6,0,4.2,0l0,6
		c0,0-4.5,0-5.8,0h-7.9v11l9.2,0l8.5,0l-0.1,5.3h-27c-1.7,0-2.6-0.8-2.6-2.5V23.6c0-2.3,1.1-3.1,3-3.1h25.9
		C50.7,20.5,51.3,21.4,51.3,22.9L51.3,22.9L51.3,22.9z"/>
	<path class="st1" d="M76.4,24.9h-1.8c-2.5,0-2.9,0.8-2.9,2.6v9.3h2.8c5.1-0.1,8.8-2.2,8.7-6.5C83.1,26.7,79.7,24.9,76.4,24.9
		L76.4,24.9L76.4,24.9z M87,39l11,18.6h-13c0,0-3.6-7.8-5.4-12s-3.5-4.7-5.7-4.7h-2.3v11.3l0,5.4H59.8V23.7c0-2.3,0.8-3.2,3.6-3.2
		h18.3c4.7,0,12.3,1.4,12.3,8.8C94,35.6,89.6,38.3,87,39L87,39L87,39z"/>
	<path class="st1" d="M196.5,24.9h-1.8c-2.5,0-2.9,0.8-2.9,2.6v9.3h2.8c5.1-0.1,8.8-2.2,8.7-6.5C203.2,26.7,199.8,24.9,196.5,24.9
		L196.5,24.9L196.5,24.9z M207.1,39l11,18.6h-13c0,0-3.6-7.8-5.4-12c-1.8-4.2-3.5-4.7-5.7-4.7h-2.3v11.3l0,5.4h-11.9V23.7
		c0-2.3,0.8-3.2,3.6-3.2h18.3c4.7,0,12.3,1.4,12.3,8.8C214,35.6,209.7,38.3,207.1,39L207.1,39L207.1,39z"/>
	<path class="st1" d="M248.8,57h1v-1.8h0.5l1,1.8h1.1l-1.1-1.9c0.4-0.2,0.9-0.5,0.9-1.2c0-0.3-0.1-0.6-0.4-0.9
		c-0.3-0.2-0.7-0.4-1.6-0.4h-1.4V57L248.8,57z M249.8,53.4h0.4c0.5,0,1,0.1,1,0.6c0,0.4-0.3,0.6-0.8,0.6h-0.5V53.4L249.8,53.4z
		 M250.4,51.1c-2.1,0-3.8,1.6-3.8,3.7c0,2.1,1.7,3.7,3.8,3.7c2.1,0,3.8-1.6,3.8-3.7C254.2,52.8,252.5,51.1,250.4,51.1L250.4,51.1
		L250.4,51.1L250.4,51.1z M250.4,51.8c1.7,0,3,1.3,3,3.1c0,1.7-1.3,3.1-3,3.1c-1.7,0-3-1.3-3-3.1C247.3,53.2,248.7,51.8,250.4,51.8
		L250.4,51.8L250.4,51.8L250.4,51.8z"/>
</g>
</svg>
